<?xml version="1.0" encoding="UTF-8"?>
<svg id="Layer_1" data-name="Layer 1" xmlns="http://www.w3.org/2000/svg" xmlns:xlink="http://www.w3.org/1999/xlink" version="1.1" viewBox="0 0 16 800">
  <defs>
    <style>
      .cls-1 {
        mask: url(#mask);
      }

      .cls-2 {
        fill-rule: evenodd;
      }

      .cls-2, .cls-3 {
        fill: #fff;
        stroke-width: 0px;
      }
    </style>
    <mask id="mask" x="1.4" y="147.7" width="12.7" height="8.3" maskUnits="userSpaceOnUse">
      <g id="mask-2">
        <polygon id="path-1" class="cls-2" points="1.4 147.7 14 147.7 14 156.1 1.4 156.1 1.4 147.7"/>
      </g>
    </mask>
  </defs>
  <g>
    <rect class="cls-3" x="1" y="1" width="6" height="6"/>
    <rect class="cls-3" x="1" y="9" width="6" height="6"/>
    <rect class="cls-3" x="9" y="1" width="6" height="6"/>
    <rect class="cls-3" x="9" y="9" width="6" height="6"/>
  </g>
  <g>
    <rect class="cls-3" x="1" y="17" width="6" height="6"/>
    <rect class="cls-3" x="1" y="25" width="5.9" height="6"/>
    <rect class="cls-3" x="8.5" y="19.5" width="6.5" height="1.5"/>
    <rect class="cls-3" x="8.5" y="27.5" width="6.5" height="1.5"/>
  </g>
  <path class="cls-3" d="M13.1,62.6H2.9c-.9,0-1.6-.7-1.6-1.6v-10.2c0-.9.7-1.6,1.6-1.6h6v1.4H2.9c-.2,0-.2.1-.2.2v10.1c0,.2,0,.2.2.2h10.1c.1,0,.2,0,.2-.2v-5.9h1.4v5.9c0,.8-.7,1.6-1.6,1.6Z"/>
  <polygon class="cls-3" points="10.7 58 10.7 56.6 8.2 56.6 14.7 50.2 13.7 49.2 7.2 55.6 7.2 53.2 5.8 53.2 5.8 58 10.7 58"/>
  <path class="cls-3" d="M13.1,46.6H2.9c-.9,0-1.6-.7-1.6-1.6v-10.1c0-.9.7-1.6,1.6-1.6h6v1.4H2.9c-.2,0-.2,0-.2.2v10.1c0,.2,0,.2.2.2h10.1c.1,0,.2,0,.2-.2v-6h1.4v6c0,.8-.8,1.5-1.6,1.5Z"/>
  <polygon class="cls-3" points="9.8 33.2 9.8 34.6 12.2 34.6 5.8 41.1 6.8 42 13.2 35.6 13.2 38.1 14.6 38.1 14.6 33.2 9.8 33.2"/>
  <path class="cls-3" d="M14.6,73.8l-1.2-.7c.1-.6.1-1.4,0-2l1.2-.7c.1,0,.2-.2.1-.4-.3-1-.9-1.9-1.6-2.6-.1-.1-.3-.1-.4,0l-1.2.7c-.5-.4-1.1-.8-1.7-1v-1.4c0-.1-.1-.3-.2-.4-1.1-.2-2.1-.2-3.1,0-.2,0-.2.2-.2.4v1.4c-.7.2-1.2.6-1.7,1l-1.2-.7c-.2,0-.3,0-.4,0-.7.8-1.2,1.6-1.5,2.6,0,.2,0,.3.1.4l1.2.7c0,.6,0,1.4,0,2l-1.2.7c-.1,0-.2.2-.1.4.3,1,.9,1.9,1.5,2.6,0,.1.3.1.4,0l1.2-.7c.5.4,1.1.8,1.7,1v1.4c0,.1,0,.3.2.4,1.1.2,2.1.2,3.1,0,.1,0,.2-.2.2-.4v-1.4c.6-.2,1.2-.6,1.7-1l1.2.7c.1,0,.3,0,.4,0,.7-.8,1.2-1.6,1.6-2.6,0-.1,0-.3-.1-.4ZM8,74.4c-1.2,0-2.2-1-2.2-2.2s1-2.2,2.2-2.2,2.2,1,2.2,2.2-1,2.2-2.2,2.2Z"/>
  <polygon class="cls-3" points="8 81.8 10 85.8 14.5 86.5 11.2 89.6 12.1 94 8 91.9 4 94 4.8 89.6 1.5 86.5 6 85.8 8 81.8"/>
  <path class="cls-3" d="M8,97c-3.6,0-6.4,2.9-6.4,6.4l.9,7.6h3.3l-.8-7.5c0-1.9,1.1-3,2.9-3s2.9,1.1,2.9,3l-.8,7.5h3.3l.9-7.5c0-3.6-2.8-6.5-6.4-6.5ZM5.2,108.3l.2,2.3h-2.5l-.2-2.3h2.5ZM13.1,110.6h-2.6l.2-2.3h2.6l-.2,2.3Z"/>
  <g id="Restore_Default" data-name="Restore Default">
    <path id="Combined-Shape" class="cls-3" d="M4.6,116.2l1.7.6-4,3.2-.8-5.1,1.8.7c1.2-1.3,2.9-2.1,4.8-2.1,3.5,0,6.5,2.9,6.5,6.5s-2.8,6.5-6.4,6.5v-1.3c2.9,0,5.2-2.3,5.2-5.2s-2.3-5.3-5.2-5.3c-1.3,0-2.5.5-3.5,1.4ZM9.5,120.1c0,.7-.5,1.2-1.2,1.2s-1.2-.5-1.2-1.2.5-1.2,1.2-1.2c.7,0,1.2.5,1.2,1.2Z"/>
  </g>
  <g id="Clear-Drawings">
    <path id="Combined-Shape-2" data-name="Combined-Shape" class="cls-3" d="M2.6,132.9v-1.2h10.9v1.2H2.6ZM5.2,130.8v-1.2h5.5v1.2h-5.5ZM3.4,133.9h9.1l-.6,8.6H4l-.6-8.6ZM4.1,134.6l.5,7.4h6.9l.5-7.4h-7.9ZM7.7,140.2v-4h.6v4h-.6ZM5.8,140.2v-4h.6v4h-.6ZM9.7,140.2v-4h.6v4h-.6Z"/>
  </g>
  <g id="icon_eye-invisible" data-name="icon/eye-invisible">
    <path id="Fill-1" class="cls-2" d="M7.7,149.8c-1.1,0-2.1.9-2.1,2.1s.9,2.1,2.1,2.1,2.1-.9,2.1-2.1-.9-2.1-2.1-2.1"/>
    <g id="Group-5">
      <g class="cls-1">
        <path id="Fill-3" class="cls-2" d="M7.7,155.2c-1.8,0-3.3-1.5-3.3-3.3s1.5-3.3,3.3-3.3,3.3,1.5,3.3,3.3-1.5,3.3-3.3,3.3M7.7,147.7c-3.5,0-6.3,4.2-6.3,4.2,0,0,2.8,4.2,6.3,4.2s6.3-4.2,6.3-4.2c0,0-2.8-4.2-6.3-4.2"/>
      </g>
    </g>
    <polygon id="Line-9" class="cls-3" points="2 146.9 2.8 146 13.3 156.5 12.5 157.3 2 146.9"/>
  </g>
</svg>